<?xml version="1.0" encoding="utf-8"?>
<!-- Generator: Adobe Illustrator 24.2.0, SVG Export Plug-In . SVG Version: 6.00 Build 0)  -->
<svg version="1.1" id="katman_1" xmlns="http://www.w3.org/2000/svg" xmlns:xlink="http://www.w3.org/1999/xlink" x="0px" y="0px"
	 viewBox="0 0 500 500" style="enable-background:new 0 0 500 500;" xml:space="preserve">
<style type="text/css">
	.st0{fill:#2C2C2C;stroke:#000000;stroke-miterlimit:10;}
	.st1{fill:#FFFFFF;}
	.st2{fill:#03336E;}
	.st3{fill:#D1EBFF;}
	.st4{fill:#FFFFFF;stroke:#65C8D0;stroke-miterlimit:10;}
	.st5{fill:#4AFFF2;}
	.st6{fill:#FFF4F4;}
	.st7{fill:#2C2C2C;}
</style>
<circle class="st0" cx="-790" cy="-270" r="150.03"/>
<circle class="st0" cx="-270" cy="-270" r="150.03"/>
<circle class="st0" cx="250" cy="-270" r="150.03"/>
<rect x="-940.03" y="99.97" class="st0" width="300.07" height="300.07"/>
<rect x="-420.03" y="99.97" class="st0" width="300.07" height="300.07"/>
<rect x="99.97" y="99.97" class="st0" width="300.07" height="300.07"/>
<g>
	<g>
		<g>
			<polygon class="st1" points="-690.88,-358.07 -847.59,-284.44 -832.72,-236.54 			"/>
			<path class="st2" d="M-832.72-235.66c-0.08,0-0.16-0.01-0.24-0.03c-0.28-0.08-0.51-0.3-0.59-0.58l-14.87-47.9
				c-0.13-0.42,0.07-0.87,0.46-1.05l156.71-73.64c0.39-0.18,0.87-0.05,1.11,0.32c0.24,0.37,0.17,0.86-0.17,1.14l-141.84,121.53
				C-832.31-235.73-832.51-235.66-832.72-235.66z M-846.52-283.97l14.25,45.89l135.9-116.45L-846.52-283.97z"/>
		</g>
		<g>
			<polygon class="st1" points="-690.88,-358.07 -847.59,-284.44 -873.68,-282.65 -889.12,-296.95 			"/>
			<path class="st2" d="M-873.68-281.77c-0.22,0-0.43-0.08-0.6-0.23l-15.44-14.3c-0.23-0.21-0.33-0.53-0.26-0.84
				c0.07-0.31,0.3-0.55,0.6-0.64l198.24-61.12c0.44-0.13,0.91,0.09,1.08,0.52c0.17,0.43-0.03,0.92-0.44,1.11l-156.71,73.64
				c-0.1,0.05-0.21,0.07-0.31,0.08l-26.09,1.79C-873.64-281.77-873.66-281.77-873.68-281.77z M-887.41-296.56l14.05,13.01
				l25.55-1.75l145.24-68.25L-887.41-296.56z"/>
		</g>
		<g>
			<polygon class="st3" points="-690.88,-358.07 -817.85,-267.14 -832.72,-236.54 			"/>
			<path class="st2" d="M-832.72-235.66c-0.19,0-0.38-0.06-0.54-0.18c-0.33-0.25-0.44-0.7-0.25-1.08l14.87-30.6
				c0.06-0.13,0.16-0.24,0.28-0.33l126.97-90.94c0.38-0.27,0.91-0.2,1.2,0.17c0.29,0.37,0.24,0.9-0.12,1.21l-141.84,121.53
				C-832.31-235.73-832.51-235.66-832.72-235.66z M-817.15-266.55l-12.93,26.6l123.31-105.66L-817.15-266.55z"/>
		</g>
		<g>
			<polygon class="st1" points="-690.88,-358.07 -817.85,-267.14 -798.04,-245.33 -773.74,-236.47 			"/>
			<path class="st2" d="M-773.74-235.59c-0.1,0-0.2-0.02-0.3-0.05l-24.31-8.86c-0.13-0.05-0.25-0.13-0.35-0.24l-19.8-21.8
				c-0.17-0.19-0.25-0.43-0.22-0.68c0.03-0.25,0.16-0.48,0.36-0.62l126.97-90.94c0.34-0.25,0.82-0.21,1.12,0.09
				c0.3,0.3,0.35,0.77,0.11,1.12l-82.86,121.61C-773.18-235.73-773.45-235.59-773.74-235.59z M-797.54-246.08l23.46,8.56
				l79.69-116.95L-816.53-267L-797.54-246.08z"/>
		</g>
	</g>
	<polygon class="st3" points="-843.88,-198.35 -814.14,-181.05 -743.17,-237.73 	"/>
</g>
<g>
	<g>
		<path class="st1" d="M312.98-284.27l-138.13-80.64c-13.05-7.54-23.64,0.46-23.64,17.87v43.89c0,17.41,10.58,37.63,23.64,45.16
			l69.21,39.57l18.09,53.28l18.09-32.38l32.75,20.17c13.05,7.54,23.64-0.46,23.64-17.87v-43.89
			C336.61-256.51,326.03-276.73,312.98-284.27z"/>
		<path class="st2" d="M262.14-163.93c-0.04,0-0.07,0-0.11,0c-0.47-0.04-0.88-0.36-1.03-0.81l-17.95-52.85l-68.81-39.34
			c-13.37-7.72-24.24-28.45-24.24-46.21v-43.89c0-13.31,6.07-21.91,15.46-21.91c3.18,0,6.54,1.01,9.99,3l138.14,80.64
			c13.36,7.71,24.23,28.44,24.23,46.2v43.9c0,6.52-1.45,12.02-4.2,15.91c-2.78,3.93-6.67,6-11.25,6c0,0,0,0,0,0
			c-3.18,0-6.54-1.01-9.99-3l-31.71-19.52l-17.48,31.28C262.98-164.16,262.57-163.93,262.14-163.93z M165.46-366.54
			c-7.93,0-13.05,7.66-13.05,19.5v43.89c0,17,10.33,36.79,23.03,44.12l69.2,39.57c0.26,0.15,0.45,0.38,0.54,0.66l17.22,50.71
			l16.77-30.01c0.16-0.29,0.43-0.49,0.75-0.58c0.32-0.08,0.66-0.03,0.94,0.14l32.75,20.17c3.04,1.76,6,2.66,8.75,2.66h0
			c3.77,0,6.98-1.72,9.28-4.98c2.46-3.48,3.76-8.5,3.76-14.52v-43.9c0-16.99-10.33-36.79-23.03-44.12l-138.14-80.64
			C171.16-365.64,168.21-366.54,165.46-366.54z"/>
	</g>
	<g>
		<polygon class="st3" points="287.59,-193.26 280.23,-197.51 262.14,-165.13 276.66,-173.69 		"/>
		<path class="st2" d="M262.14-163.93c-0.31,0-0.61-0.12-0.84-0.34c-0.39-0.38-0.48-0.97-0.21-1.45l18.09-32.38
			c0.16-0.28,0.42-0.49,0.73-0.57c0.31-0.09,0.65-0.04,0.92,0.12l7.36,4.25c0.57,0.33,0.77,1.06,0.45,1.63l-10.93,19.57
			c-0.1,0.19-0.26,0.34-0.44,0.45l-14.52,8.56C262.56-163.98,262.35-163.93,262.14-163.93z M280.68-195.85l-15.32,27.42l10.4-6.13
			l10.19-18.25L280.68-195.85z"/>
	</g>
	<g>
		<path class="st3" d="M325.16-291.41l-138.13-80.64c-5.59-3.23-10.72-3.59-14.77-1.6l-0.13-0.14l-12.92,7.58l0.05,0.16
			c4.16-2.48,9.61-2.32,15.58,1.14l138.13,80.64c13.05,7.54,23.64,27.76,23.64,45.16v43.89c0,8.46-2.51,14.67-6.58,17.98l7.2-4.74
			c6.06-3.47,11.56-8.87,11.56-20.38v-43.89C348.79-263.65,338.21-283.88,325.16-291.41z"/>
		<path class="st2" d="M330.03-176.02c-0.37,0-0.74-0.17-0.97-0.49c-0.38-0.52-0.29-1.24,0.21-1.65c3.96-3.22,6.14-9.28,6.14-17.05
			v-43.89c0-16.99-10.33-36.79-23.03-44.12l-138.14-80.64c-5.33-3.08-10.43-3.48-14.36-1.14c-0.32,0.19-0.7,0.22-1.05,0.09
			c-0.35-0.13-0.61-0.42-0.72-0.77c-0.16-0.53,0.01-1.27,0.49-1.55l12.92-7.58c0.23-0.14,0.5-0.19,0.76-0.16
			c4.45-1.94,9.85-1.28,15.35,1.89l138.14,80.64c13.36,7.71,24.24,28.44,24.24,46.2v43.89c0,12.96-6.94,18.43-12.17,21.43l-7.14,4.7
			C330.49-176.09,330.26-176.02,330.03-176.02z M166.21-368.92c2.96,0.14,6.06,1.13,9.23,2.96l138.14,80.64
			c13.36,7.71,24.23,28.44,24.23,46.21v43.89c0,5.11-0.9,9.57-2.6,13.12l1.35-0.89c5.16-2.96,11.02-7.8,11.02-19.38v-43.89
			c0-16.99-10.33-36.79-23.03-44.12l-138.14-80.64c-5-2.89-9.8-3.44-13.63-1.56c-0.18,0.09-0.38,0.11-0.57,0.12L166.21-368.92z"/>
	</g>
	<g>
		
			<ellipse transform="matrix(0.8633 -0.5047 0.5047 0.8633 175.7995 64.6206)" class="st4" cx="207.19" cy="-292.22" rx="9.41" ry="16.3"/>
		<path class="st4" d="M212.38-276.16c-1.83,0-3.78-0.59-5.79-1.75c-6.71-3.87-12.16-13.28-12.16-20.98c0-5.7,2.97-9.38,7.57-9.38
			c1.83,0,3.78,0.59,5.79,1.75c6.71,3.87,12.16,13.28,12.16,20.98C219.96-279.85,216.98-276.16,212.38-276.16z M202-305.86
			c-3.23,0-5.16,2.61-5.16,6.97c0,6.93,4.91,15.4,10.96,18.89c1.62,0.93,3.2,1.43,4.58,1.43c3.23,0,5.17-2.61,5.17-6.97
			c0-6.93-4.91-15.4-10.96-18.89C204.97-305.37,203.39-305.86,202-305.86z"/>
	</g>
	<g>
		<path class="st4" d="M254.93-264.6c0,7.33-5.17,10.28-11.56,6.59c-6.38-3.69-11.56-12.61-11.56-19.94
			c0-7.33,5.17-10.28,11.56-6.59C249.75-280.85,254.93-271.92,254.93-264.6z"/>
		<path class="st4" d="M248.55-255.21c-1.83,0-3.78-0.59-5.79-1.75c-6.71-3.87-12.16-13.28-12.16-20.98c0-5.7,2.97-9.38,7.58-9.38
			c1.83,0,3.78,0.59,5.79,1.75c6.71,3.87,12.16,13.28,12.16,20.98C256.13-258.9,253.16-255.21,248.55-255.21z M238.18-284.91
			c-3.23,0-5.17,2.61-5.17,6.97c0,6.93,4.91,15.4,10.96,18.89c1.62,0.93,3.2,1.43,4.58,1.43c3.23,0,5.17-2.61,5.17-6.97
			c0-6.93-4.91-15.4-10.96-18.89C241.15-284.42,239.56-284.91,238.18-284.91z"/>
	</g>
	<g>
		<path class="st4" d="M290.25-244.5c0,7.33-5.17,10.28-11.56,6.59c-6.38-3.69-11.56-12.61-11.56-19.94
			c0-7.33,5.18-10.28,11.56-6.59C285.07-260.75,290.25-251.82,290.25-244.5z"/>
		<path class="st4" d="M283.88-235.12c-1.83,0-3.78-0.59-5.79-1.75c-6.71-3.87-12.16-13.28-12.16-20.98c0-5.7,2.97-9.38,7.58-9.38
			c1.83,0,3.78,0.59,5.79,1.75c6.71,3.87,12.16,13.29,12.16,20.98C291.45-238.8,288.48-235.12,283.88-235.12z M273.5-264.82
			c-3.23,0-5.17,2.61-5.17,6.97c0,6.93,4.91,15.4,10.96,18.89c1.62,0.93,3.2,1.43,4.59,1.43c3.23,0,5.16-2.61,5.16-6.97
			c0-6.93-4.91-15.4-10.96-18.89C276.47-264.32,274.89-264.82,273.5-264.82z"/>
	</g>
</g>
<g>
	<g>
		<g>
			<path class="st3" d="M-224.14-211.66l50.31-29.05c5.67-3.28,4.96-9-1.59-12.78l-118.3-68.3c-6.55-3.78-16.47-4.19-22.14-0.92
				l-50.31,29.05c-5.67,3.28-4.96,9,1.59,12.78l118.3,68.3C-239.73-208.8-229.82-208.39-224.14-211.66z"/>
			<g>
				<path class="st3" d="M-226.69-215.78l48.01-27.72c2.42-1.4,3.62-3.26,3.66-5.22c0-0.17,0-5.82-0.02-5.99
					c-0.2-2.26-1.94-1.02-5.15-2.87l-112.88-65.17c-6.25-3.61-15.71-4-21.13-0.88l-48.01,27.72c-2.42,1.4-3.62-1.06-3.65,0.89
					c0,0.17,0,6.54,0.02,6.71c0.19,2.27,1.94,4.62,5.15,6.47l112.88,65.17C-241.57-213.04-232.11-212.65-226.69-215.78z"/>
				<path class="st2" d="M-235.87-212.96C-235.87-212.96-235.87-212.96-235.87-212.96c-4.43,0-8.91-1.12-12.3-3.08l-112.89-65.18
					c-3.33-1.92-5.28-4.41-5.5-7.02c-0.02-0.24-0.02-6.73-0.02-6.79c0.02-1.22,0.6-1.48,1.08-1.48c0.24,0,0.48,0.08,0.73,0.16
					c0.59,0.19,1.38,0.31,2.2-0.16l48.01-27.72c2.46-1.42,5.85-2.2,9.53-2.2c4.43,0,8.91,1.12,12.3,3.08l112.89,65.17
					c1.26,0.72,2.26,0.94,3.06,1.11c1.17,0.25,2.28,0.48,2.44,2.31c0.02,0.24,0.02,6.01,0.02,6.06c-0.04,2.28-1.46,4.35-4.01,5.81
					l-48.01,27.72C-228.8-213.75-232.19-212.96-235.87-212.96z M-365.17-295C-365.17-295-365.17-295-365.17-295
					c0,0.3,0,6.37,0.02,6.66c0.18,2.09,1.93,4.25,4.8,5.9l112.89,65.17c3.18,1.84,7.41,2.89,11.6,2.89h0c3.44,0,6.57-0.72,8.82-2.02
					l48.01-27.72c2.1-1.21,3.27-2.85,3.3-4.62c0-0.33,0-5.67-0.02-5.93c-0.07-0.77-0.21-0.8-1.33-1.04
					c-0.86-0.18-2.03-0.43-3.48-1.27l-112.89-65.17c-3.18-1.84-7.41-2.89-11.6-2.89c-3.44,0-6.57,0.72-8.82,2.02l-48.01,27.72
					C-363.07-294.6-364.44-294.76-365.17-295z"/>
			</g>
			<g>
				<path class="st1" d="M-226.69-221.77l48.01-27.72c5.42-3.13,4.74-8.59-1.52-12.2l-112.88-65.17c-6.25-3.61-15.71-4-21.13-0.88
					l-48.01,27.72c-5.42,3.13-4.74,8.59,1.52,12.2l112.88,65.17C-241.57-219.03-232.11-218.64-226.69-221.77z"/>
				<path class="st2" d="M-235.87-218.95L-235.87-218.95c-4.43,0-8.91-1.12-12.3-3.08l-112.89-65.17c-3.51-2.03-5.52-4.76-5.52-7.51
					c0-2.32,1.42-4.42,4.01-5.91l48.01-27.72c2.46-1.42,5.85-2.2,9.53-2.2c4.43,0,8.91,1.12,12.3,3.08l112.89,65.17
					c3.51,2.03,5.52,4.76,5.52,7.51c0,2.32-1.42,4.42-4.01,5.91l-48.01,27.72C-228.8-219.74-232.19-218.95-235.87-218.95z
					 M-305.04-329.14c-3.44,0-6.57,0.72-8.82,2.02l-48.01,27.72c-2.13,1.23-3.3,2.89-3.3,4.69c0,2.23,1.76,4.52,4.82,6.29
					l112.89,65.17c3.18,1.84,7.41,2.89,11.6,2.89h0c3.44,0,6.57-0.72,8.82-2.02l48.01-27.72c2.13-1.23,3.3-2.9,3.3-4.69
					c0-2.23-1.76-4.52-4.82-6.29l-112.89-65.17C-296.62-328.09-300.85-329.14-305.04-329.14z"/>
			</g>
			<g>
				<path class="st1" d="M-311.22-324.64c3.74-2.16,9.8-2.17,13.52-0.02l113.7,65.64c3.72,2.15,3.7,5.64-0.04,7.81l-45.65,26.36
					c-3.74,2.16-9.8,2.17-13.52,0.02l-113.7-65.64c-3.72-2.15-3.7-5.64,0.04-7.81L-311.22-324.64z"/>
				<path class="st2" d="M-236.49-222.53c-2.66,0-5.18-0.6-7.07-1.7l-113.7-65.64c-2.02-1.17-3.13-2.76-3.13-4.49
					c0-1.74,1.13-3.35,3.17-4.54l45.65-26.36c1.93-1.11,4.46-1.72,7.15-1.72c2.66,0,5.18,0.6,7.07,1.7l113.7,65.64
					c2.02,1.17,3.13,2.76,3.13,4.49c0,1.74-1.13,3.35-3.17,4.53l-45.65,26.36C-231.26-223.14-233.8-222.53-236.49-222.53z
					 M-304.42-325.57c-2.44,0-4.73,0.55-6.45,1.53l-45.65,26.36c-1.59,0.92-2.47,2.1-2.47,3.32c0,1.21,0.86,2.37,2.43,3.27
					l113.7,65.64c1.69,0.97,3.95,1.51,6.37,1.51c2.44,0,4.73-0.54,6.45-1.53l45.65-26.36c1.59-0.92,2.47-2.1,2.47-3.31
					c0-1.21-0.86-2.37-2.43-3.27l-113.7-65.64C-299.74-325.03-302-325.57-304.42-325.57z"/>
			</g>
		</g>
	</g>
</g>
<g>
	<path class="st4" d="M-318.18-295.82l1.41-1.56c1.16-1.29,1.76-2.95,1.67-4.68c-0.09-1.73-0.84-3.32-2.13-4.49l-2.38-2.15
		c-1.2-1.08-2.74-1.68-4.35-1.68c-1.83,0-3.59,0.78-4.81,2.13l-1.41,1.56c-0.18,0.2-0.35,0.42-0.52,0.66l-0.07,0.07
		c-1.33,1.14-2.47,3.91-1.81,7.3c3.03,15.79,16.33,27.82,32.35,29.26c2.1,0.19,4.08-0.24,5.58-1.16c0.6-0.35,1.13-0.77,1.58-1.28
		l1.41-1.56c2.4-2.65,2.19-6.76-0.46-9.16l-2.38-2.15c-1.2-1.08-2.74-1.68-4.35-1.68c-1.83,0-3.59,0.78-4.81,2.14l-1.41,1.56
		c-0.6,0.67-1.05,1.43-1.34,2.28l-0.13,0.38l-0.37-0.15c-6.29-2.49-11.42-7.19-14.44-13.26l-0.2-0.4l0.43-0.13
		C-319.99-294.3-318.97-294.94-318.18-295.82z"/>
	<path class="st4" d="M-310.26-314.53c0,0.83,0.68,1.51,1.51,1.51c10.6,0,19.22,8.62,19.22,19.23c0,0.83,0.68,1.51,1.51,1.51
		c0.83,0,1.51-0.68,1.51-1.51c0-12.27-9.98-22.25-22.25-22.25C-309.58-316.04-310.26-315.37-310.26-314.53z"/>
	<path class="st4" d="M-310.5-307.13c0,0.84,0.68,1.51,1.51,1.51c6.66,0,12.07,5.41,12.07,12.07c0,0.84,0.68,1.51,1.51,1.51
		c0.83,0,1.51-0.68,1.51-1.51c0-8.32-6.77-15.09-15.09-15.09C-309.82-308.64-310.5-307.97-310.5-307.13z"/>
</g>
<text transform="matrix(1 0 0 1 -801.1205 400.0348)" class="st6" style="font-family:'MicrosoftYaHeiUI'; font-size:311.4847px;">f</text>
<g>
	<path class="st5" d="M-355,342c-3.87,0-7-3.13-7-7V165c0-3.87,3.13-7,7-7h170c3.87,0,7,3.13,7,7v170c0,3.87-3.13,7-7,7H-355z"/>
	<path class="st6" d="M-185,165v170h-170V165H-185 M-185,151h-170c-7.73,0-14,6.27-14,14v170c0,7.73,6.27,14,14,14h170
		c7.73,0,14-6.27,14-14V165C-171,157.27-177.27,151-185,151L-185,151z"/>
</g>
<g>
	<path class="st1" d="M-355,342.5c-4.14,0-7.5-3.36-7.5-7.5V165c0-4.14,3.36-7.5,7.5-7.5h170c4.14,0,7.5,3.36,7.5,7.5v170
		c0,4.14-3.36,7.5-7.5,7.5H-355z"/>
	<path class="st1" d="M-185,165v170h-170V165H-185 M-185,150h-170c-8.28,0-15,6.72-15,15v170c0,8.28,6.72,15,15,15h170
		c8.28,0,15-6.72,15-15V165C-170,156.72-176.72,150-185,150L-185,150z"/>
</g>
<g>
	<circle class="st1" cx="-270" cy="250" r="66.5"/>
	<path class="st7" d="M-270,190c33.14,0,60,26.86,60,60s-26.86,60-60,60s-60-26.86-60-60S-303.14,190-270,190 M-270,177
		c-40.25,0-73,32.75-73,73s32.75,73,73,73s73-32.75,73-73S-229.75,177-270,177L-270,177z"/>
</g>
<g>
	<circle class="st7" cx="-204" cy="181" r="10"/>
</g>
<g>
	<path d="M233,295.55c-2.56,1.07-4.05,0.28-4.43-2.01c-0.61-3.67-1.18-7.37-1.39-11.07c-0.24-4.17-0.05-8.37-0.05-12.55
		c-0.53-0.1-1.07-0.2-1.6-0.3c-2.98,8.42-5.96,16.83-9.01,25.46c-1.22-0.13-2.46-0.25-4.3-0.45c0.81-5.1,1.6-9.98,2.38-14.86
		c-0.18-0.06-0.36-0.12-0.53-0.19c-1.25,3.46-2.5,6.92-3.77,10.44c-5.13-4.33-4.09-12.3,3.66-28.85
		c-12.43-3.26-7.63-13.88-9.39-22.2c-3.12-0.44-6.4-0.91-9.73-1.39c2.16-6.4,9.56-11.01,17.26-10.96c7.75,0.05,13.6,4.2,19.27,9.3
		c1.24-5.84,2.22-11.33,3.57-16.74c4.73-18.89,13.39-35.58,27.85-48.93c1.7-1.57,3.57-3.05,5.59-4.18c3.66-2.04,6.48-1.19,8.54,2.46
		c1.08,1.91,1.82,4.02,2.73,6.09c2.62-0.82,5.14-1.73,7.72-2.39c2.82-0.73,5.29-0.02,7.28,2.23c11.18,12.64,14.1,40.65,5.72,55.45
		c-4.67,8.24-11.59,14.27-19.3,19.52c-0.86,0.58-1.68,1.22-2.76,2c2.13,2.63,4.27,5.06,6.18,7.65
		c7.39,10.04,13.52,20.75,12.88,33.68c-0.3,5.96-2.26,11.87-3.7,17.74c-0.72,2.93-2.26,5.67-2.96,8.6
		c-1.42,5.99-5.8,8.68-11.13,9.82c-2.14,0.46-5.22-0.07-6.85-1.4c-3.28-2.67-6.06-6.05-8.66-9.43c-2.03-2.64-3.47-5.73-5.18-8.62
		c-0.29,0.11-0.57,0.22-0.86,0.33c1.98,8.27,3.95,16.55,5.93,24.83c-11.42,1.88-18.92-3.64-19.79-14.76
		c-0.88-11.3-1.54-22.62-1.93-33.94c-0.15-4.22,0.74-8.47,1.16-12.71c-0.3-0.08-0.6-0.17-0.9-0.25c-0.32,1.13-0.84,2.24-0.92,3.38
		c-0.4,6.3-0.78,12.6-0.97,18.91c-0.09,2.84-1.14,4.09-4.35,3.54c-0.75-4.13-1.5-8.32-2.4-13.29
		C233.51,289.45,233.25,292.57,233,295.55z M285.67,206.78c0.21,0.33,0.42,0.67,0.62,1c-2.33,1.61-4.73,3.13-6.98,4.84
		c-5.74,4.37-11.72,8.49-17.02,13.34c-5.29,4.84-9.12,10.99-11.22,17.9c-0.67,2.2-0.7,5.78,0.62,7.07c1.28,1.26,5.04,1.25,7.02,0.32
		c7.24-3.42,14.69-6.75,21.14-11.4c14.04-10.12,20.4-23.92,16.75-41.43c-1.57-7.56-4.65-14.51-9.07-21.22
		c-16.07,12.95-29.34,27.42-35.49,47.37C261.61,215.32,271.76,207.34,285.67,206.78z M239.91,237.51c0.64-1.86,1.05-2.82,1.31-3.83
		c4.89-18.76,13.59-35.41,27.56-49.03c3.14-3.06,3.36-6.77,4.07-10.83C252.21,183.33,236.28,221.49,239.91,237.51z M261.92,261.31
		c-0.1-0.55-0.2-1.1-0.3-1.65c-9.09,1.09-15.68-2.93-20.92-9.75c-0.35-0.46-0.78-0.88-1.24-1.22c-2.22-1.66-6.95-1.07-7.69,1.24
		c-0.96,3-1.31,6.19-1.94,9.41c9.75,1.29,18.74,2.57,27.76,3.56C258.96,263.04,260.47,261.87,261.92,261.31z M284.72,273.3
		c-7.8,3.87-15.43,7.65-23.14,11.48c3.74,4.52,7.47,5.96,12.16,3.88c3.76-1.66,7.33-3.99,10.57-6.56
		C287.57,279.53,287.48,277.34,284.72,273.3z M290.74,292.23c-0.64-1.89-1.84-2.4-4.13-1.63c-6.14,2.09-12.35,3.98-18.59,5.76
		c-2.81,0.8-4.04,2.02-2.43,4.99C274.94,301.49,284.35,301.73,290.74,292.23z M261.28,276.46c4.43-2.23,7.81-4.04,11.28-5.66
		c3.72-1.74,5.06-4.52,4.16-8.64c-8.25-1.56-10.89,5.71-15.36,9.94C260.76,272.67,261.28,274.43,261.28,276.46z M213.78,245.31
		c0.7-2.27,1.33-4.32,2.05-6.64c-5.22,3.25-5.55,5.6-2.03,13.05c3.2-1.33,6.41-2.67,10.37-4.31c-2.42-0.46-3.91-0.72-5.39-1.02
		C217.19,246.07,215.63,245.71,213.78,245.31z M225.48,245.64c1.51-2.6,2.28-4.94,0.3-7.22c-1.82-2.09-4.14-2.57-7.3-1.36
		C224.69,237.73,224.97,238.09,225.48,245.64z"/>
	<path class="st1" d="M285.67,206.78c-13.91,0.56-24.06,8.54-33.63,17.79c6.15-19.95,19.42-34.42,35.49-47.37
		c4.42,6.71,7.5,13.65,9.07,21.22c3.64,17.51-2.71,31.3-16.75,41.43c-6.45,4.65-13.9,7.98-21.14,11.4
		c-1.98,0.93-5.74,0.94-7.02-0.32c-1.31-1.29-1.28-4.87-0.62-7.07c2.1-6.91,5.93-13.06,11.22-17.9c5.3-4.85,11.29-8.97,17.02-13.34
		c2.25-1.71,4.65-3.23,6.98-4.84C286.09,207.45,285.88,207.11,285.67,206.78z"/>
	<path class="st1" d="M239.91,237.51c-3.63-16.02,12.31-54.18,32.94-63.69c-0.71,4.06-0.92,7.77-4.07,10.83
		c-13.97,13.62-22.67,30.27-27.56,49.03C240.96,234.68,240.55,235.65,239.91,237.51z"/>
	<path class="st1" d="M261.92,261.31c-1.45,0.56-2.96,1.73-4.33,1.58c-9.02-1-18.01-2.27-27.76-3.56c0.63-3.21,0.98-6.41,1.94-9.41
		c0.74-2.31,5.46-2.9,7.69-1.24c0.46,0.35,0.89,0.77,1.24,1.22c5.24,6.82,11.83,10.84,20.92,9.75
		C261.72,260.21,261.82,260.76,261.92,261.31z"/>
	<path class="st1" d="M284.72,273.3c2.76,4.04,2.85,6.23-0.41,8.81c-3.24,2.56-6.81,4.89-10.57,6.56c-4.7,2.07-8.43,0.63-12.16-3.88
		C269.3,280.95,276.93,277.16,284.72,273.3z"/>
	<path class="st1" d="M290.74,292.23c-6.4,9.5-15.81,9.25-25.15,9.12c-1.62-2.98-0.39-4.19,2.43-4.99
		c6.24-1.77,12.45-3.67,18.59-5.76C288.91,289.83,290.11,290.34,290.74,292.23z"/>
	<path class="st1" d="M261.28,276.46c0-2.03-0.52-3.79,0.08-4.36c4.47-4.23,7.11-11.5,15.36-9.94c0.89,4.11-0.44,6.9-4.16,8.64
		C269.09,272.42,265.71,274.23,261.28,276.46z"/>
	<path class="st1" d="M213.78,245.31c1.85,0.4,3.42,0.75,4.99,1.07c1.48,0.3,2.97,0.57,5.39,1.02c-3.96,1.65-7.16,2.98-10.37,4.31
		c-3.52-7.44-3.19-9.79,2.03-13.05C215.11,240.99,214.48,243.04,213.78,245.31z"/>
	<path class="st1" d="M225.48,245.64c-0.51-7.55-0.8-7.91-7.01-8.58c3.16-1.21,5.49-0.73,7.3,1.36
		C227.76,240.7,226.99,243.04,225.48,245.64z"/>
</g>
</svg>
